<svg width="100" height="100" viewBox="0 0 100 100" fill="none" xmlns="http://www.w3.org/2000/svg">
  <path d="M35 85C37.7614 85 40 82.7614 40 80C40 77.2386 37.7614 75 35 75C32.2386 75 30 77.2386 30 80C30 82.7614 32.2386 85 35 85Z" fill="#B2BEC3"/>
  <path d="M75 85C77.7614 85 80 82.7614 80 80C80 77.2386 77.7614 75 75 75C72.2386 75 70 77.2386 70 80C70 82.7614 72.2386 85 75 85Z" fill="#B2BEC3"/>
  <path d="M90 25H30.94L27.44 15.73C27.0573 14.5994 26.3241 13.6186 25.3516 12.9353C24.3791 12.252 23.2167 11.9005 22.03 11.93H10V16.93H22.03L39.03 65.93C39.4127 67.0606 40.1459 68.0414 41.1184 68.7247C42.0909 69.408 43.2533 69.7595 44.44 69.73H80V64.73H44.44L41.44 55.73H80C81.1542 55.7314 82.2876 55.3849 83.2474 54.7346C84.2072 54.0843 84.9451 53.1597 85.36 52.08L92.36 32.08C92.6624 31.3019 92.7784 30.4663 92.6988 29.6369C92.6192 28.8074 92.3461 28.0087 91.9006 27.3031C91.4551 26.5976 90.8503 26.0029 90.1397 25.5673C89.4292 25.1316 88.6321 24.8672 87.81 24.79C87.5945 24.7632 87.3775 24.75 87.16 24.75L31.76 24.73L35.26 34.73H87.19L82.19 49.73H40.19L23.19 0.730003H10C9.20435 0.730003 8.44129 1.04143 7.87868 1.60404C7.31607 2.16665 7.00464 2.92971 7.00464 3.72536C7.00464 4.52101 7.31607 5.28407 7.87868 5.84668C8.44129 6.40929 9.20435 6.72072 10 6.72072V6.73H17.44L20.94 16L35.44 64C35.8227 65.1306 36.5559 66.1114 37.5284 66.7947C38.5009 67.478 39.6633 67.8295 40.85 67.8H85C85.7956 67.8 86.5587 67.4886 87.1213 66.926C87.6839 66.3634 87.9954 65.6003 87.9954 64.8047C87.9954 64.009 87.6839 63.246 87.1213 62.6834C86.5587 62.1208 85.7956 61.8093 85 61.8093V61.73H41.85L38.85 52.73H83.85C85.0042 52.7314 86.1376 52.3849 87.0974 51.7346C88.0572 51.0843 88.7951 50.1597 89.21 49.08L96.21 29.08C96.5124 28.3019 96.6284 27.4663 96.5488 26.6369C96.4692 25.8074 96.1961 25.0087 95.7506 24.3031C95.3051 23.5976 94.7003 23.0029 93.9897 22.5673C93.2792 22.1316 92.4821 21.8672 91.66 21.79C91.4445 21.7632 91.2275 21.75 91.01 21.75L34.6 21.73L31.1 11.73H22.03C21.2343 11.73 20.4713 12.0414 19.9087 12.604C19.3461 13.1666 19.0346 13.9297 19.0346 14.7253C19.0346 15.521 19.3461 16.284 19.9087 16.8466C20.4713 17.4092 21.2343 17.7207 22.03 17.7207V17.73H27.44L30.94 27L45.44 75C45.8227 76.1306 46.5559 77.1114 47.5284 77.7947C48.5009 78.478 49.6633 78.8295 50.85 78.8H95C95.7956 78.8 96.5587 78.4886 97.1213 77.926C97.6839 77.3634 97.9954 76.6003 97.9954 75.8047C97.9954 75.009 97.6839 74.246 97.1213 73.6834C96.5587 73.1208 95.7956 72.8093 95 72.8093V72.73H51.85L48.85 63.73H93.85C95.0042 63.7314 96.1376 63.3849 97.0974 62.7346C98.0572 62.0843 98.7951 61.1597 99.21 60.08L100 57.73H93.19L92.19 60.73H47.19L30.19 11.73H10C9.20435 11.73 8.44129 12.0414 7.87868 12.604C7.31607 13.1666 7.00464 13.9297 7.00464 14.7253C7.00464 15.521 7.31607 16.284 7.87868 16.8466C8.44129 17.4092 9.20435 17.7207 10 17.7207V17.73H17.44L20.94 27L35.44 75C35.8227 76.1306 36.5559 77.1114 37.5284 77.7947C38.5009 78.478 39.6633 78.8295 40.85 78.8H95C95.7956 78.8 96.5587 78.4886 97.1213 77.926C97.6839 77.3634 97.9954 76.6003 97.9954 75.8047C97.9954 75.009 97.6839 74.246 97.1213 73.6834C96.5587 73.1208 95.7956 72.8093 95 72.8093V72.73H41.85L38.85 63.73H83.85C85.0042 63.7314 86.1376 63.3849 87.0974 62.7346C88.0572 62.0843 88.7951 61.1597 89.21 60.08L90 57.73" stroke="#B2BEC3" stroke-width="2" stroke-linecap="round" stroke-linejoin="round"/>
</svg> 